# xmcd
#
# Track frame offsets:
#	150
#	13585
#	30320
#	44343
#	57018
#	73418
#	87550
#	101078
#	116958
#	136500
#	152175
#	171400
#	191753
#	208400
#	221880
#	237418
#	252915
#	266958
#	280785
#	297885
#
# Disc length: 4163 seconds
#
# Revision: 1
# Processed by: cddbd v1.5.2PL0 Copyright (c) Steve Scherf et al.
# Submitted via: audiograbber 1.83.01
#
DISCID=3f104114
DTITLE=Various Artist - Uutuuksia Kevätkesä '93 (PRCD 8)
DYEAR=1993
DGENRE=Pop
TTITLE0=Arja Koriseva - Vain Taivas Yksin Tietää
TTITLE1=Paula Koivuniemi - Ikivanha Leikki
TTITLE2=Maarit - Rakkaus On On
TTITLE3=Katri Helena - Tule Luo
TTITLE4=Tulipunaruusut - Elämä Ottaa, Elämä Antaa
TTITLE5=Pedro's Heavy Gentlemen - Hiljainen Kylätie
TTITLE6=Jaakko Salon Pelimanniyhtye - Aamu Airistolla
TTITLE7=Kepa Salmirinne - Tuskin Toivun Milloinkaan
TTITLE8=Melart - Reilataan
TTITLE9=Marjut Fabritius - Kaipuu
TTITLE10=Sydänmaa - Hyvää Yötä Helsinki
TTITLE11=Indiana - Monta Miljoonaa Sanaa
TTITLE12=Katriina Honkanen - Silta
TTITLE13=Joel Hallikainen - Anna Vierellesi Tulla
TTITLE14=Ressu Redford - Taas Aurinko Nousee (Radio Mix)
TTITLE15=Miljoonasade - Ikäväni Tallinnaan
TTITLE16=Kake Randelin - Elämä On Kovaa
TTITLE17=Meiju Suvas - Moliendo Cafe
TTITLE18=Frederik - En Oo Joo - Joo Mies
TTITLE19=Raili Eronen and Twangers - Päivän Vain
EXTD=TR.
EXTT0=
EXTT1=
EXTT2=
EXTT3=
EXTT4=
EXTT5=
EXTT6=
EXTT7=
EXTT8=
EXTT9=
EXTT10=
EXTT11=
EXTT12=
EXTT13=
EXTT14=
EXTT15=
EXTT16=
EXTT17=
EXTT18=
EXTT19=
PLAYORDER=
